
<svg width="38" height="36" viewBox="0 0 38 36" fill="none" xmlns="http://www.w3.org/2000/svg">
    <path id="Vector" d="M4 0C1.78 0 0 1.8 0 4V32C0 33.0609 0.421427 34.0783 1.17157 34.8284C1.92172 35.5786 2.93913 36 4 36H32C33.0609 36 34.0783 35.5786 34.8284 34.8284C35.5786 34.0783 36 33.0609 36 32V27.44C37.18 26.74 38 25.48 38 24V12C38 10.52 37.18 9.26 36 8.56V4C36 2.93913 35.5786 1.92172 34.8284 1.17157C34.0783 0.421427 33.0609 0 32 0H4ZM4 4H32V8H20C18.9391 8 17.9217 8.42143 17.1716 9.17157C16.4214 9.92172 16 10.9391 16 12V24C16 25.0609 16.4214 26.0783 17.1716 26.8284C17.9217 27.5786 18.9391 28 20 28H32V32H4V4ZM20 12H34V24H20V12ZM26 15C25.2044 15 24.4413 15.3161 23.8787 15.8787C23.3161 16.4413 23 17.2044 23 18C23 18.7956 23.3161 19.5587 23.8787 20.1213C24.4413 20.6839 25.2044 21 26 21C26.7956 21 27.5587 20.6839 28.1213 20.1213C28.6839 19.5587 29 18.7956 29 18C29 17.2044 28.6839 16.4413 28.1213 15.8787C27.5587 15.3161 26.7956 15 26 15Z" fill="white"/>
</svg>
