
<svg width="44" height="44" viewBox="0 0 44 44" fill="none" xmlns="http://www.w3.org/2000/svg">
    <path id="Vector" d="M7.33333 7.33333H18.3333V18.3333H7.33333V7.33333ZM36.6667 7.33333V18.3333H25.6667V7.33333H36.6667ZM25.6667 27.5H29.3333V23.8333H25.6667V20.1667H29.3333V23.8333H33V20.1667H36.6667V23.8333H33V27.5H36.6667V33H33V36.6667H29.3333V33H23.8333V36.6667H20.1667V29.3333H25.6667V27.5ZM29.3333 27.5V33H33V27.5H29.3333ZM7.33333 36.6667V25.6667H18.3333V36.6667H7.33333ZM11 11V14.6667H14.6667V11H11ZM29.3333 11V14.6667H33V11H29.3333ZM11 29.3333V33H14.6667V29.3333H11ZM7.33333 20.1667H11V23.8333H7.33333V20.1667ZM16.5 20.1667H23.8333V27.5H20.1667V23.8333H16.5V20.1667ZM20.1667 11H23.8333V18.3333H20.1667V11ZM3.66667 3.66667V11H0V3.66667C0 2.69421 0.386308 1.76158 1.07394 1.07394C1.76158 0.386308 2.69421 0 3.66667 0L11 0V3.66667H3.66667ZM40.3333 0C41.3058 0 42.2384 0.386308 42.9261 1.07394C43.6137 1.76158 44 2.69421 44 3.66667V11H40.3333V3.66667H33V0H40.3333ZM3.66667 33V40.3333H11V44H3.66667C2.69421 44 1.76158 43.6137 1.07394 42.9261C0.386308 42.2384 0 41.3058 0 40.3333V33H3.66667ZM40.3333 40.3333V33H44V40.3333C44 41.3058 43.6137 42.2384 42.9261 42.9261C42.2384 43.6137 41.3058 44 40.3333 44H33V40.3333H40.3333Z" fill="white"/>
</svg>
