
<svg width="37" height="33" viewBox="0 0 37 33" fill="none" xmlns="http://www.w3.org/2000/svg">
    <path id="Vector" d="M0 25.6667H37V33H0V25.6667ZM7.8625 7.33333H12.95V5.5H7.4V0H22.2V5.5H16.65V7.33333H29.23C31.08 7.33333 32.93 9.16667 33.3 11L34.225 23.8333H2.775L3.7925 11C3.7925 9.16667 5.6425 7.33333 7.8625 7.33333ZM20.35 11V14.6667H29.6V11H20.35ZM7.4 11V12.8333H11.1V11H7.4ZM12.95 11V12.8333H16.65V11H12.95ZM7.4 14.6667V16.5H11.1V14.6667H7.4ZM12.95 14.6667V16.5H16.65V14.6667H12.95ZM7.4 18.3333V20.1667H11.1V18.3333H7.4ZM12.95 18.3333V20.1667H16.65V18.3333H12.95ZM9.25 1.83333V3.66667H20.35V1.83333H9.25Z" fill="white"/>
</svg>
