<svg width="48" height="25" viewBox="0 0 48 25" fill="none" xmlns="http://www.w3.org/2000/svg">
    <path id="Vector" d="M35.7287 8.08333C34.56 6.91667 32.9739 6.25 31.3043 6.25C29.6348 6.25 28.0487 6.91667 26.88 8.08333C25.7113 9.25 25.0435 10.8333 25.0435 12.5C25.0435 14.1667 25.7113 15.75 26.88 16.9167C28.0487 18.0833 29.6348 18.75 31.3043 18.75C32.9739 18.75 34.56 18.0833 35.7287 16.9167C36.8974 15.75 37.5652 14.1667 37.5652 12.5C37.5652 10.8333 36.8974 9.25 35.7287 8.08333ZM14.6087 0V25H48V0H14.6087ZM43.8261 16.6667C42.72 16.6667 41.6557 17.1042 40.8835 17.8958C40.0904 18.6667 39.6522 19.7292 39.6522 20.8333H22.9565C22.9565 19.7292 22.5183 18.6667 21.7252 17.8958C20.953 17.1042 19.8887 16.6667 18.7826 16.6667V8.33333C19.8887 8.33333 20.953 7.89583 21.7252 7.10417C22.5183 6.33333 22.9565 5.27083 22.9565 4.16667H39.6522C39.6522 5.27083 40.0904 6.33333 40.8835 7.10417C41.6557 7.89583 42.72 8.33333 43.8261 8.33333V16.6667ZM10.4348 4.16667H6.26087C5.11304 4.16667 4.17391 3.22917 4.17391 2.08333C4.17391 0.9375 5.11304 0 6.26087 0H10.4348V4.16667ZM10.4348 14.5833H4.17391C3.02609 14.5833 2.08696 13.6458 2.08696 12.5C2.08696 11.3542 3.02609 10.4167 4.17391 10.4167H10.4348V14.5833ZM10.4348 25H2.08696C0.934957 25 0 24.0625 0 22.9167C0 21.7708 0.934957 20.8333 2.08696 20.8333H10.4348V25Z" fill="white"/>
</svg>